<svg xmlns="http://www.w3.org/2000/svg" viewBox="0 0 760 820" role="img" aria-labelledby="title desc">
<title id="title">UMBRA</title><desc id="desc">Logo vertical UMBRA con huella de taza y lema Café de verdad, en casa.</desc>
<defs>
  <filter id="rough" x="-20%" y="-20%" width="140%" height="140%">
    <feTurbulence type="fractalNoise" baseFrequency="0.035 0.085" numOctaves="2" seed="23" result="noise"/>
    <feDisplacementMap in="SourceGraphic" in2="noise" scale="4" xChannelSelector="R" yChannelSelector="G"/>
  </filter>
</defs>
<g fill="none" stroke="#e7ddce" stroke-linecap="round" filter="url(#rough)">
  <path d="M223 126 C284 75 385 67 466 97 C548 127 588 193 586 271 C583 356 534 418 459 447 C384 476 292 467 231 416" stroke-width="24"/>
  <path d="M231 416 C203 390 185 359 179 328" stroke-width="19"/>
  <path d="M177 287 C177 275 178 263 181 252" stroke-width="14"/>
  <path d="M187 225 C191 212 197 199 204 187" stroke-width="11"/>
</g>
<g fill="#e7ddce" opacity=".8"><circle cx="184" cy="311" r="4"/><circle cx="176" cy="301" r="2.8"/><circle cx="190" cy="236" r="2.2"/><circle cx="584" cy="289" r="2.2"/></g>
<text x="380" y="610" text-anchor="middle" fill="#e7ddce" font-family="Georgia,'Times New Roman',serif" font-size="122" font-weight="700" letter-spacing="8">UMBRA</text>
<text x="380" y="682" text-anchor="middle" fill="#cfc3b3" font-family="Inter,Arial,sans-serif" font-size="26" font-weight="500" letter-spacing="7">CAFÉ DE VERDAD, EN CASA</text>
</svg>